<mxfile modified="2024-02-24T13:15:00.523Z" host="Electron" agent="Mozilla/5.0 (Macintosh; Intel Mac OS X 10_15_7) AppleWebKit/537.36 (KHTML, like Gecko) draw.io/23.1.5 Chrome/120.0.6099.109 Electron/28.1.0 Safari/537.36" etag="0W1uBEH0ejA0TB3zAeo9" version="23.1.5" type="device">
  <diagram id="Ht1M8jgEwFfnCIfOTk4-" name="Page-1">
    <mxGraphModel dx="1752" dy="1129" grid="1" gridSize="10" guides="1" tooltips="1" connect="1" arrows="1" fold="1" page="1" pageScale="1" pageWidth="1169" pageHeight="827" math="0" shadow="0">
      <root>
        <mxCell id="0" />
        <mxCell id="1" parent="0" />
        <mxCell id="S3e9Sxl7u26vaGx3Gl0a-4" value="" style="rounded=0;whiteSpace=wrap;html=1;dashed=1;dashPattern=8 8;fillColor=#FFF3DE;fillStyle=auto;strokeColor=#d79b00;" vertex="1" parent="1">
          <mxGeometry x="10" y="70" width="1140" height="660" as="geometry" />
        </mxCell>
        <mxCell id="UEzPUAAOIrF-is8g5C7q-132" style="edgeStyle=orthogonalEdgeStyle;rounded=0;orthogonalLoop=1;jettySize=auto;html=1;startArrow=none;startFill=0;endArrow=open;endFill=0;strokeWidth=2;strokeColor=#808080;" parent="1" source="UEzPUAAOIrF-is8g5C7q-115" target="UEzPUAAOIrF-is8g5C7q-119" edge="1">
          <mxGeometry relative="1" as="geometry">
            <Array as="points">
              <mxPoint x="1079" y="290" />
            </Array>
          </mxGeometry>
        </mxCell>
        <mxCell id="UEzPUAAOIrF-is8g5C7q-136" style="edgeStyle=orthogonalEdgeStyle;rounded=0;orthogonalLoop=1;jettySize=auto;html=1;startArrow=none;startFill=0;endArrow=open;endFill=0;strokeWidth=2;strokeColor=#808080;" parent="1" source="UEzPUAAOIrF-is8g5C7q-115" target="UEzPUAAOIrF-is8g5C7q-123" edge="1">
          <mxGeometry relative="1" as="geometry">
            <Array as="points">
              <mxPoint x="1079" y="322" />
            </Array>
          </mxGeometry>
        </mxCell>
        <mxCell id="UEzPUAAOIrF-is8g5C7q-142" style="edgeStyle=orthogonalEdgeStyle;rounded=0;orthogonalLoop=1;jettySize=auto;html=1;startArrow=none;startFill=0;endArrow=open;endFill=0;strokeWidth=2;strokeColor=#808080;" parent="1" source="UEzPUAAOIrF-is8g5C7q-114" target="UEzPUAAOIrF-is8g5C7q-115" edge="1">
          <mxGeometry relative="1" as="geometry">
            <mxPoint x="687.5" y="296.5" as="sourcePoint" />
            <mxPoint x="820.5" y="296.5" as="targetPoint" />
            <Array as="points">
              <mxPoint x="740.5" y="281.5" />
              <mxPoint x="740.5" y="281.5" />
            </Array>
          </mxGeometry>
        </mxCell>
        <mxCell id="UEzPUAAOIrF-is8g5C7q-114" value="Amazon API&lt;br&gt;Gateway&lt;br&gt;" style="outlineConnect=0;fontColor=#232F3E;gradientColor=#945DF2;gradientDirection=north;fillColor=#5A30B5;strokeColor=#ffffff;dashed=0;verticalLabelPosition=bottom;verticalAlign=top;align=center;html=1;fontSize=12;fontStyle=0;aspect=fixed;shape=mxgraph.aws4.resourceIcon;resIcon=mxgraph.aws4.api_gateway;labelBackgroundColor=#ffffff;" parent="1" vertex="1">
          <mxGeometry x="750" y="247.5" width="78" height="78" as="geometry" />
        </mxCell>
        <mxCell id="aVaACIGeY8zZtvS4ritr-2" style="edgeStyle=orthogonalEdgeStyle;rounded=0;orthogonalLoop=1;jettySize=auto;html=1;entryX=0.5;entryY=1;entryDx=0;entryDy=0;entryPerimeter=0;" parent="1" source="UEzPUAAOIrF-is8g5C7q-115" target="aVaACIGeY8zZtvS4ritr-1" edge="1">
          <mxGeometry relative="1" as="geometry" />
        </mxCell>
        <mxCell id="UEzPUAAOIrF-is8g5C7q-115" value="Lambda&lt;br&gt;function: api backend" style="outlineConnect=0;fontColor=#232F3E;gradientColor=none;fillColor=#D05C17;strokeColor=none;dashed=0;verticalLabelPosition=bottom;verticalAlign=top;align=center;html=1;fontSize=12;fontStyle=0;aspect=fixed;pointerEvents=1;shape=mxgraph.aws4.lambda_function;labelBackgroundColor=#ffffff;" parent="1" vertex="1">
          <mxGeometry x="880" y="247.5" width="78" height="78" as="geometry" />
        </mxCell>
        <mxCell id="UEzPUAAOIrF-is8g5C7q-119" value="Amazon&lt;br&gt;DynamoDB&lt;br&gt;Table: users" style="outlineConnect=0;fontColor=#232F3E;gradientColor=#4D72F3;gradientDirection=north;fillColor=#3334B9;strokeColor=#ffffff;dashed=0;verticalLabelPosition=bottom;verticalAlign=top;align=center;html=1;fontSize=12;fontStyle=0;aspect=fixed;shape=mxgraph.aws4.resourceIcon;resIcon=mxgraph.aws4.dynamodb;labelBackgroundColor=#ffffff;spacingTop=5;" parent="1" vertex="1">
          <mxGeometry x="1040.0000000000002" y="120" width="78" height="78" as="geometry" />
        </mxCell>
        <mxCell id="UEzPUAAOIrF-is8g5C7q-123" value="Amazon&lt;br&gt;CloudWatch Logs/Metrics" style="outlineConnect=0;fontColor=#232F3E;gradientColor=none;gradientDirection=north;fillColor=#F34482;strokeColor=none;dashed=0;verticalLabelPosition=bottom;verticalAlign=top;align=center;html=1;fontSize=12;fontStyle=0;aspect=fixed;shape=mxgraph.aws4.cloudwatch;labelBackgroundColor=#ffffff;" parent="1" vertex="1">
          <mxGeometry x="1040.0000000000002" y="375" width="78" height="78" as="geometry" />
        </mxCell>
        <mxCell id="NlvQtQ1QJhqWiSyS9MPp-5" style="edgeStyle=orthogonalEdgeStyle;rounded=0;orthogonalLoop=1;jettySize=auto;html=1;startArrow=none;startFill=0;strokeWidth=2;strokeColor=#808080;" parent="1" source="NlvQtQ1QJhqWiSyS9MPp-3" target="NlvQtQ1QJhqWiSyS9MPp-4" edge="1">
          <mxGeometry relative="1" as="geometry" />
        </mxCell>
        <mxCell id="NlvQtQ1QJhqWiSyS9MPp-7" value="/index.html" style="edgeLabel;html=1;align=center;verticalAlign=middle;resizable=0;points=[];" parent="NlvQtQ1QJhqWiSyS9MPp-5" vertex="1" connectable="0">
          <mxGeometry x="-0.0582" y="2" relative="1" as="geometry">
            <mxPoint x="-2" y="17" as="offset" />
          </mxGeometry>
        </mxCell>
        <mxCell id="NlvQtQ1QJhqWiSyS9MPp-21" style="edgeStyle=orthogonalEdgeStyle;rounded=0;orthogonalLoop=1;jettySize=auto;html=1;startArrow=none;startFill=0;strokeColor=#808080;strokeWidth=2;" parent="1" source="NlvQtQ1QJhqWiSyS9MPp-3" target="NlvQtQ1QJhqWiSyS9MPp-20" edge="1">
          <mxGeometry relative="1" as="geometry">
            <Array as="points">
              <mxPoint x="970" y="500" />
            </Array>
          </mxGeometry>
        </mxCell>
        <mxCell id="NlvQtQ1QJhqWiSyS9MPp-3" value="Cloudfront distribution" style="points=[[0,0,0],[0.25,0,0],[0.5,0,0],[0.75,0,0],[1,0,0],[0,1,0],[0.25,1,0],[0.5,1,0],[0.75,1,0],[1,1,0],[0,0.25,0],[0,0.5,0],[0,0.75,0],[1,0.25,0],[1,0.5,0],[1,0.75,0]];outlineConnect=0;fontColor=#232F3E;gradientColor=#945DF2;gradientDirection=north;fillColor=#5A30B5;strokeColor=#ffffff;dashed=0;verticalLabelPosition=bottom;verticalAlign=top;align=center;html=1;fontSize=12;fontStyle=0;aspect=fixed;shape=mxgraph.aws4.resourceIcon;resIcon=mxgraph.aws4.cloudfront;" parent="1" vertex="1">
          <mxGeometry x="750" y="440" width="78" height="78" as="geometry" />
        </mxCell>
        <mxCell id="NlvQtQ1QJhqWiSyS9MPp-4" value="S3 bucket with static files" style="outlineConnect=0;fontColor=#232F3E;gradientColor=none;strokeColor=#232F3E;fillColor=#ffffff;dashed=0;verticalLabelPosition=bottom;verticalAlign=top;align=center;html=1;fontSize=12;fontStyle=0;aspect=fixed;shape=mxgraph.aws4.resourceIcon;resIcon=mxgraph.aws4.bucket_with_objects;" parent="1" vertex="1">
          <mxGeometry x="759" y="610" width="60" height="60" as="geometry" />
        </mxCell>
        <mxCell id="NlvQtQ1QJhqWiSyS9MPp-12" style="edgeStyle=orthogonalEdgeStyle;rounded=0;orthogonalLoop=1;jettySize=auto;html=1;entryX=0;entryY=0.5;entryDx=0;entryDy=0;entryPerimeter=0;startArrow=none;startFill=0;strokeColor=#808080;strokeWidth=2;exitX=1;exitY=0.697;exitDx=0;exitDy=0;exitPerimeter=0;" parent="1" source="NlvQtQ1QJhqWiSyS9MPp-8" target="NlvQtQ1QJhqWiSyS9MPp-3" edge="1">
          <mxGeometry relative="1" as="geometry">
            <Array as="points">
              <mxPoint x="670" y="429" />
              <mxPoint x="670" y="479" />
            </Array>
          </mxGeometry>
        </mxCell>
        <mxCell id="NlvQtQ1QJhqWiSyS9MPp-14" value="&lt;span style=&quot;color: rgb(102 , 102 , 102) ; font-size: 17px ; text-align: left ; background-color: rgb(248 , 249 , 250)&quot;&gt;https://devops-chal...&lt;/span&gt;" style="edgeLabel;html=1;align=center;verticalAlign=middle;resizable=0;points=[];" parent="NlvQtQ1QJhqWiSyS9MPp-12" vertex="1" connectable="0">
          <mxGeometry x="-0.6008" y="-1" relative="1" as="geometry">
            <mxPoint x="60" as="offset" />
          </mxGeometry>
        </mxCell>
        <mxCell id="NlvQtQ1QJhqWiSyS9MPp-13" style="edgeStyle=orthogonalEdgeStyle;rounded=0;orthogonalLoop=1;jettySize=auto;html=1;entryX=0;entryY=0.417;entryDx=0;entryDy=0;entryPerimeter=0;startArrow=none;startFill=0;strokeColor=#808080;strokeWidth=2;" parent="1" source="NlvQtQ1QJhqWiSyS9MPp-8" target="UEzPUAAOIrF-is8g5C7q-114" edge="1">
          <mxGeometry relative="1" as="geometry">
            <Array as="points">
              <mxPoint x="670" y="370" />
              <mxPoint x="670" y="280" />
            </Array>
          </mxGeometry>
        </mxCell>
        <mxCell id="NlvQtQ1QJhqWiSyS9MPp-15" value="&lt;span style=&quot;color: rgb(102 , 102 , 102) ; font-size: 17px ; text-align: left ; background-color: rgb(248 , 249 , 250)&quot;&gt;https://yyy.execute-api...&lt;/span&gt;" style="edgeLabel;html=1;align=center;verticalAlign=middle;resizable=0;points=[];" parent="NlvQtQ1QJhqWiSyS9MPp-13" vertex="1" connectable="0">
          <mxGeometry x="-0.635" y="3" relative="1" as="geometry">
            <mxPoint x="62" as="offset" />
          </mxGeometry>
        </mxCell>
        <mxCell id="NlvQtQ1QJhqWiSyS9MPp-8" value="" style="strokeWidth=1;shadow=0;dashed=0;align=center;html=1;shape=mxgraph.mockup.containers.browserWindow;rSize=0;strokeColor=#666666;strokeColor2=#008cff;strokeColor3=#c4c4c4;mainText=,;recursiveResize=0;" parent="1" vertex="1">
          <mxGeometry x="10" y="270" width="440" height="228" as="geometry" />
        </mxCell>
        <mxCell id="NlvQtQ1QJhqWiSyS9MPp-9" value="Devops ..." style="strokeWidth=1;shadow=0;dashed=0;align=center;html=1;shape=mxgraph.mockup.containers.anchor;fontSize=17;fontColor=#666666;align=left;" parent="NlvQtQ1QJhqWiSyS9MPp-8" vertex="1">
          <mxGeometry x="60" y="12" width="110" height="26" as="geometry" />
        </mxCell>
        <mxCell id="NlvQtQ1QJhqWiSyS9MPp-10" value="https://devops-challenge-dev.haidara.io" style="strokeWidth=1;shadow=0;dashed=0;align=center;html=1;shape=mxgraph.mockup.containers.anchor;rSize=0;fontSize=17;fontColor=#666666;align=left;" parent="NlvQtQ1QJhqWiSyS9MPp-8" vertex="1">
          <mxGeometry x="130" y="60" width="250" height="26" as="geometry" />
        </mxCell>
        <mxCell id="NlvQtQ1QJhqWiSyS9MPp-16" value="" style="shape=image;html=1;verticalAlign=top;verticalLabelPosition=bottom;labelBackgroundColor=#ffffff;imageAspect=0;aspect=fixed;image=https://cdn4.iconfinder.com/data/icons/logos-and-brands/512/21_Angular_logo_logos-128.png" parent="NlvQtQ1QJhqWiSyS9MPp-8" vertex="1">
          <mxGeometry x="150" y="130" width="70" height="70" as="geometry" />
        </mxCell>
        <mxCell id="NlvQtQ1QJhqWiSyS9MPp-11" value="Users" style="outlineConnect=0;fontColor=#232F3E;gradientColor=none;strokeColor=#232F3E;fillColor=#ffffff;dashed=0;verticalLabelPosition=bottom;verticalAlign=top;align=center;html=1;fontSize=12;fontStyle=0;aspect=fixed;shape=mxgraph.aws4.resourceIcon;resIcon=mxgraph.aws4.users;" parent="1" vertex="1">
          <mxGeometry x="170" y="510" width="60" height="60" as="geometry" />
        </mxCell>
        <mxCell id="NlvQtQ1QJhqWiSyS9MPp-18" value="&lt;font color=&quot;#808080&quot; size=&quot;1&quot;&gt;&lt;b style=&quot;font-size: 26px&quot;&gt;DevOps Challenge Architecture&lt;/b&gt;&lt;/font&gt;" style="text;html=1;strokeColor=none;fillColor=none;align=center;verticalAlign=middle;whiteSpace=wrap;rounded=0;" parent="1" vertex="1">
          <mxGeometry x="375" y="20" width="420" height="20" as="geometry" />
        </mxCell>
        <mxCell id="NlvQtQ1QJhqWiSyS9MPp-20" value="S3 bucket with cloudfront access logs" style="outlineConnect=0;fontColor=#232F3E;gradientColor=none;strokeColor=#232F3E;fillColor=#ffffff;dashed=0;verticalLabelPosition=bottom;verticalAlign=top;align=center;html=1;fontSize=12;fontStyle=0;aspect=fixed;shape=mxgraph.aws4.resourceIcon;resIcon=mxgraph.aws4.bucket_with_objects;" parent="1" vertex="1">
          <mxGeometry x="958" y="610" width="60" height="60" as="geometry" />
        </mxCell>
        <mxCell id="aVaACIGeY8zZtvS4ritr-1" value="xray tracing" style="points=[[0,0,0],[0.25,0,0],[0.5,0,0],[0.75,0,0],[1,0,0],[0,1,0],[0.25,1,0],[0.5,1,0],[0.75,1,0],[1,1,0],[0,0.25,0],[0,0.5,0],[0,0.75,0],[1,0.25,0],[1,0.5,0],[1,0.75,0]];outlineConnect=0;fontColor=#232F3E;gradientColor=#4D72F3;gradientDirection=north;fillColor=#3334B9;strokeColor=#ffffff;dashed=0;verticalLabelPosition=bottom;verticalAlign=top;align=center;html=1;fontSize=12;fontStyle=0;aspect=fixed;shape=mxgraph.aws4.resourceIcon;resIcon=mxgraph.aws4.xray;" parent="1" vertex="1">
          <mxGeometry x="880" y="90" width="78" height="78" as="geometry" />
        </mxCell>
        <mxCell id="S3e9Sxl7u26vaGx3Gl0a-1" value="DNS: devops-challenge-dev.haidara.io" style="shape=image;verticalLabelPosition=bottom;labelBackgroundColor=default;verticalAlign=top;aspect=fixed;imageAspect=0;image=data:image/png,iVBORw0KGgoAAAANSUhEUgAABAAAAACiCAYAAADfhr91AAAABGdBTUEAALGPC/xhBQAAACBjSFJNAAB6JgAAgIQAAPoAAACA6AAAdTAAAOpgAAA6mAAAF3CculE8AAAABmJLR0QA/wD/AP+gvaeTAABYg0lEQVR42u2deXxcVfXAv/dNljbNvEkLbaGkbLIjICAgmyCCgJZdyt42zaQR+AkICqggQUEWQQGFmmYmKQUEggKyKZsgoiyyiOz7VgplaTMzSZdk5p3fHxMFgba5LzOTeW/O9/PpB23nvnfvuecu57x7zzEo4cdN3AHsq4KwJk1ONqKvZaGKQlEURVEURVGUoOOoCMJu/Hd8U41/37Sp8a8oiqIoiqIoijoAlCDYr1VgLlQ5+OIV0kuuUDEoiqIoiqIoiqIOAKX8cRuPBzZXQfjiJDhhuYpBURRFURRFUZSwYFQEISV2xVik5mVgNRWGNfeSju+pYlAURVEURVEUJUzoCYCwIjU/VePfF1k8TlIxKIqiKIqiKIqiDgCl/Knv2BRoVUH4QWbTG39G5aAoiqIoiqIoijoAlAD0qvklUK2CsGYxUnO2ikFRFEVRFEVRFHUArJI2dSiMNPm0f/uoIPwgbWSmf6RyUBRFURRFURRFHQArN54MbuNV0F2jYh0p2qvBuVjl4IvnSXuzw93E7gix5De0qxVFURRFURRFHQDDI5aYChxJNPVdFesI4VYdD7KJCsIXJ0PrQKhbGEvHEZnLpPY67W5FURRFURRFqTwKlAawvRo38hywAZAhF9mIvqb3VLylNP4T44CX0Mj/friddHxKqFs4/vJ6lte+DKyB4XRS8Qu02xVFURRFURSlsijMCQC36juDxj9AFMfTQGql52dq/PtiADGnhL6Vy2p+CKwBgHD6oMNIURRFURRFURR1AFgwcd4Y4Iz/+TsjzTQkt1Lxloj6OZsDs1QQfpDLyTS/GOomjuucjMP3PvE3DYicon2vKIqiKIqiKOoAsGNJ//EgEz71txFycomKt1S9GLkYqFJBWLMIzM9C38ps7jzEjP6fvzPmRKLtq6sKKIqiKIqiKIo6AIZI1ygMJ33uPxl2p77jYBVxkYkm9gPZWwXhA2N+TDq+KNRtbEhsDeaIz/mXMZiq41UJFEVRFEVRFEUdAEM0Pr3jgDVX/HRzEXSNUjEXi/ZqDBepHHzxHKm3E6FvpcelKx7ncgKrJ6OqCoqiKIqiKIqiDoBV0DUKs8p7xOsRy56kYi4S0arvAhupIHxgzPegLRvqNsaShwC7ruQX41gux6oyKIqiKIqiKEqFmEH+jYuOYxFzxRB+qWkBi2L8t6+OibwMNKgwrPkj6fiB4W5idw1u+lk+zs6xIhaSjqwLTctULRRFURRlBKlLTqJajkHYFqhFeJ4q+R2LW/6twlEUZaXUz55ApLoJYUegDiNv4cnNZFpuByOf/KnPEwBiEOeEoZqqVHk/114pMMb5mRr/vuiHyA9C30o3ffwQjH+AiURzR6paKIqiKMoIEus4lip5GeF84FBgfwynkTNP4iZ/A+3VKiRFUT5/3584HKf6lcH54wBgL8Q0Y5xbiSXuo372hOE7AKKJ/UE2Gbq/QKbjztlOe6dA1HduBiaugvCB4RLSTS+HexNxxVjgx0P+vcP3QIwqh6IoiqKMkPGfP1Vb97mrNHI8scgVKihFUT5rlyf3B64BPj+ul5jdcKr/DN2jh+cA+N+c4kMrgXOpGhkFwvF+hab982P9v4+TC/9pFKk5C1ht6L/nizR07q76oSiKoiglpi45CTGrDugsxKnv3E0FpijKx3SNwvGuGIJNvzWx9En/+T/2RmSscxvE8zMB7UgsMZUU12tnDYNocn+Qb6gg/Nj/nMHi1lSo2+gmNgDsA/t5ciJwnypJQJg4bwzLemswNS6SqwKnAYcBvEgvA7KM6uVLSa3eB1P7VViKoihlTLVMRz73y/9ncbxm4K8qNEVR8nah9w3ErDWk3wpNwHn+HAB4/nOHi7kAum+BqUu1x/zQXYNJa9o/f/yLVLQz9K0ULsBQ46PkfjR0rUtP0xuqKiNMQ1cDZL+E56wNsi6GdRBZG8zaGJmMmNEs7QdqQAAi+XI5AC8/q0sNuGkgAbAI4W0Mb4G8gZi3cHgT5DVS3r+hdSCcgmxziE2IkTq259PBb5ThcFktq4+p4cPmTHH0P7E1Ofk2xlkPI32I+Tdm+dWkjlussv8c3MT2wM4I4zHyDh5/obfleRVMoBbu7YYck9uwtcpLUZSP5wRvK4uY/hsycd4YFk7rs3MAjG2PkeOwYVRzHdz0KaQ5R3vMB9H0CcCGKggfeM5JMDUXbv2YsxOGg3yWdvByTcBZqiwlNVKrqJ+0MU5kW4SdMbILXm4TMM6gdT/4n8HJ3d8tqnEYxgH5RcJ84pluZAASLyPmQQx/x8s9Tu+C56HNC6xI6zt3w/FOA/ZAqMVNLoHEEwgXk2n+ozoDfBC7YixSfSKYY4B16RcHN/EuyPXkOJ++loXDfsfY9hi5yJV4HIAZVFIZHABScx6xjh+QapmtnfEfw79rQ8hdCezIf6cIAw6Cm7gNz2mmd+YHKqgg7E/M2CHv3z0N/qwoyicdAKYem11NZqkL9NntJt2O48H8ZphVXUIktymLW9/SXrPa1I7H8V4GYioMS8T8nkzzoWFvJG7nI/kvCX4fwXwy7rqhd5SMNA1dDUhuL4T9gANZUdCWkeMD4M8IN5DJ/TlQJwTcjjYwP2HF7vDrSOemhffUQzHWno5NiXD3So4YLgTnANIzH/H9jkntdfQ5DyNmi5VvdOQMUi3n6hyS2BqPe4GxK/nVm2TNTixpXqBKXOZEE/dh2H3o63R8sgpNURQAYokLEE4d8u+zuUksaX3XMgigaS5AVevIRfQEgC1GzlHj3xfLMfLD0LfSTR49LOMfwNCIm9pbVaYY/ZMYRyzRipu4Ey/3PkI3cEwZGv8A44FjMNyCG3kXN9FFdM4UaCvvwKOxZAuYs1j5WbjDNZK2pd46zv2ruF84EbxbGX3lWr7f0xv5+SqNfwAxbcQ6t6nsTrmsFo+rV2H8A6xDlSRUiRVFUZRPM3QHgNu5AxTs7tHRg89ThsLYji0x0qyC8IHwS9LxV8LdyO7RQGG+ihnTokpTSAOq4yu4HVcC7yD8FvgGEKRczqsBM/J5ZNd6A7ejjbr2Ncuulqsno4icN8Q5YSaxjm1VOYfET0AmDOF346kaONPXGya11wFDXd+qwDu2onskNno/YLMh/npfxnRtoWqsKIqi+HMA4E0r4HsNeJdoWsAhkjMX8d9IX4oFC6kedX74N4Spk4HCHAkUplA/e4KqznAN/zl7E+u4H8xDYKYBowLfJjFrgTmLqsjrRBO/Jdb+hbKp24Dsw9BTXzqIc4oq6SoY2x7DyCyLVf0wX6dE+qp3Auot5qjKzoIjZorV76tyU1SZFUVRFB8OgPZqYGqB3/0V3M4jtQtWQTR5ELCXCsKXMXsai45Oh7qN9bMnIObUAj6xikjNwao8fg3/xPZ5w9/5M2LCmq+5FkMrEnmBaLK9LE4EiGxuWeCgfLYFZYV4zmGIGW1RooGGRh/XAHKrWRZYrcJ7xs5BK0xUZVYURVHsHQDRyD7A6gV/u/EuYOK8MdoNK6K7BiMXqBx8WQRPkJl/VeibaarPAdwCy+4I1R9L6pKTcDuuBx4JseH/aaowMouqyEtEkz8Y2RgBxvY02SgkO1UVd2XTgDPdR5mIjzK11n1X0f3CaMvf16kyK4qiKPYOAMNRxVnIzFos7T9Vu2EFRNMnoWn//G2RhJMCncpsKNR3boahqQjS25WGxDqqRkObxIh1HEuVPAemUg3KeoxcSLTxcdw5241MFcyrPrpuhurvitae5MYgO1mWWk6qfr4KT1EURVGC7gAYf3k9RvYv3r5NfsDY9rW1Kz69pZ49AcOPVBC+uJ5My9/CP3q9i4FifHU15DhU1WgIY9TtvAUxV6AZOsCwJTj/yKfi6y5tzJIs94BVJlyAHYm2b6KK/HnIdB+F/gpT+1V2iqIoihJ0B0D/qG9a3gO03GeY0eQiesz900Sqz1Wjwo8RIktxOD307XQT+wD7FNGYO0SVaSXEOvbAqX4GRANs/S9VYM4ilrq3pMEklzQvQPirj4l2mnbZp2lzMBztYy2/VmWnKIqiKIHYrK1qUefAEtTjcKIdV1TEV9uh0JDcCk+aVBA+EC4kFX8z3I3sjmBSFxY5icb21LWvyZLWd1WpPoWbOBHhIopz+uLTLMPwCmLeAO91hDdxnDfApJBcL4YB8HowNTlEHHK5WiLUkYvUE8nVIM6awHog6yKsi2FdYN3ij0OzG071Y8Q6DiLV8niJemYusLtVCUemQfeZMDWniv0f/W78BvZZRfqo5Q9kVHyKoiiKEnAHQHs1yL4lqYkxl0Lbl0N/b3soeN5FYDTtn7UOyTuMqv0F6ZC3M5aOI6bYuZ0dqp39gDmqWP+hzcGd/CuQE4qqw2IeBPMweA+Tjj1R8GPV9Z3jMd5XgB1xZCdg+yKd8pqMmL/iJg8l3fynondPXc3vWdr/ayBq4ahYC7dnT9Lcqfr9X+yP/xvTzYfNav4riqIoSuAdAG7k60BDieqyNdHJ08gwt6J7JJY8BJE9VTV9IOZUFk7rC3Ubx19ez3LaSiTPA9QB8B/aq3Ej80AOL8LD38RwA8INpOL/BCNFbUrvzA+AWwf/wMR5Y1i2fAqemYoj+xbYGTAG5I+4ySbSzdcUtV0Lp/URS9yAMNOuoDMD1AEAwNj2GJ4cYH26yPO6VHiKoiiKEgxWFQNgv5LWxsjPGX95feV2x2W1iFyoaumLh0k3h/8O6vLa04E1SvS2PSp7PP6H7giuczVQSOM/C3INyI6km9cjFf8B6fijRTf+V2Q4p1quJxM/hGpnIsIMjDxdwDdUg1yJmzyq6G3xZK6PUgcSu2Ks6jngOUf6cAC9Tib+oApPURRFUcLhANi7xPVZk2U1P6zY3oiN/h6wvqqlNQLOSSNiPJWScR2NwPdK+MZRLK/drcJVy+CmuwqY4q8PzGU4bEC65WjSLQ+Xld5+2JwhE7+SVHwrYApQqLgsEZC5xJLFDS6ZjyPzorWeU3uYTqOAGD/R/ztDP/cqiqIoSkU4AGId6wFfKHmNjDkFN7FBxfVE/ewJiDldVdIXV5Oe+UjoW5nlfKCuxG/dq6I1K5o8DzimEKYVxnQhuXVJN59IT7kHqjRCOn476fhXMfJ1MC8U4KFViFxNNLFzkat+lX3vyIyKn0WjyY2BHSxLeURy83QJUhRFUZQwOACKmWJs5dQi5ryK64lI1c/RtH9+WEIkd0boW9mQ2BrMESPw5sp1AMSSLRhOK8CTnkVkN1LNM8m0fhg4OaRa/kK670sgPwGWDfNpozDcTKy9eM7l/pq5gG1U/x2o79i0sncDMtNHqXtZ3PqWLkOKoiiKEg4HwMht/I18m/rOyjl63DDnS4iZoeroi/MqYgPqcSmrvrJTDDYbvHpQWbiJ7RH5zTCfIsA5pHNbBz/F6QnLSbf8DNgCeGyYD1sdifweukcXpapLp78D3Gu/7vg6/h4SuiMIR/tQcQ3+pyiKoijhcAC0OYj52sjWzPsVtDkV0QtiLgE07Z89b5J2Lw59K6PJg4BdR+z9WWePitKq6JWrATcANcN4ShqRg0jHz4TWgdDIJh1/hXRkV5DhHvv+ErH0b4pXUR/BAA3Toa2qImdSN7U3MMmyVIp674+6DCmKoihKGBwADZO2pHTp/1bE1kQbZ4a+B2KJQxGzm6qiD4w5FaYuDXcju2swcsHIyll2rSy9GpgNrD2MJ7yM5+1EpiWkxlHTMtIt0zHSCvh3bggziSUOLUoV01U3AYstS62BO7lCr7z4OIEmXMeC1iW6ECmKoihKGBwAnrNLmRh45zK2PcT34i+rRfi5qqEv5fgHqZk3hL6Zbvp4YMMRrYOwc8WolZs4EvBvlBp5Gqnekd5Zz4ZeVqmWOYg5DMgOQ7cup372hMJXrmkZyPX25bwZVBpuYhywv72uO3r8X1EURVFC4wCgXDb8MgHP+XFopR8bcwqwgaqh/S4dcieFPvVUPjd5Oej/JkTbVw+9VuWP/l82jCc8Ty67J5npH1XMSMw034SRo7EPuvcfxuNUX1qcyhkfBqo5cFAPKgg5Aqi1LPRiRWReURRFURR1AIzE3sScSHTORqGT/JiOiYicpiroZ1/PXNKz/hn+fXn1T4DVykLimK+EX7EGzhuGvF8ha/ak99j3K248plquB5oAz+cTDifWUfg4E+n4oxh52rJUDWbgsAqbUGf4WJeTuhApiqIoSlgcAPmI35PLqI41GOfC0Em+yvwccFUFrckwUAFp/9zEBmCOK6OpYqdQyzvWsS2GZp+lezC5fVjSvKBiR2U6fhWGH/kuL+bXRQnA5zlXlcQgDir1czYHvmxZKksue7UuRYqiKIoSFgfAgPlyGdbzAGLJb4RG6g2JrRFmqPr5wHAuS1rfDX875UKGF4W+wPUx24Ra3mIuwF+aRcGTZlKtr1b82Ew1X4jhZp+lNyPaWPg50fPmYR2oULZjTNcWFdFnkUiTj1J3VsQcrCiKoigV4wAwbF2eG3T5VWhSNAmXMDI53YPOa6Qil4a+ldE5OyHmwDKr1dahlXesYy/g677KGn5Bb8uNOjQhH5Ojfybwuk9Zng3dowtapb6WhWDutC5XlT0m/P3VVoXIUfb9ZDT4n6IoiqKEygFA2X7p24zYWi3BNzaSUxG+qqrnAzHfz0f3DncjMZFLAFNm9ZrA6CvXCqnIz/JZ8mFS83+sA/MTpI5bDByOv8wAk3BThU/96nldPnRiWmgczisi2rgvsIZlqY9I9d2miq4oiqIooXIASPke9RVzTrAjNHeNQkY4p3tgjTTuI9N8U+jb6SaPBtmuLOtWtTx8pwCiyV3wF/Q0h+MdC21ZHZyfIh1/FGS2v8LmlIIb3r2x24APLEtNxG3cO+Q9NcNH/1wDJyxXJVcURVGUsDgA6jvHA5PKuL7jMAPB/eIW804G1lW182FsRbyTw9/M7tHAOeU7W5itQidyI9/3WfC39Mz6lw7NFelK1U/A+MmIsB6xtQ4pbGWm9oO51rqYhDgYYPTK1TB8y75fZa4qt6IoiqKEyQGAt2kA6vzdwcjFwULT/vlHSFSEsRVLnQysXb79YDYJlbzrkpOAKT5KfoRUnaUDcyX0NPUg3uk+9ez4gtcn5ySsyxjZn2j76qHsH9N/FFBrKY+n6Yk/qcqtKIqiKGFyAEQkCBv8KhwneMfoI+YCNO2fHzJ4kbbQt7J+9gTEnFrmtQyXAyAiRwMRHyV/Qmb6Rzo0VzVy43OBx3yU3LXgTt6+pqeBf1mWqsFEDg9n5/g43SAmqUqtKIqiKGFzAIjZOCD1/hZuYp/ASDnWuQ1wjKqbD0TOpq/pvdC301SfQ/k7iDYGMeGROdN8lFpIOtKpA3NIAhaMOd/fyuQUIeCr+IlePyN03VKf+CL2WT368ZzfqU4riqIoStgcAMH6wvdLaK8OhhHrXYKm/fPDq2SW/ib0razv2BRDUwBqGqWuc81QyNydsx1g/5XZyK/Dn4migKTevgl42Yfz4IiCBwOUmmsA2wB22zK2Y8uQrfr2mRaE2+id+YEqtKIoiqKEzwGwUYDqvilu1XfKvpaxjsOAXVXV/GzYzckVEXHaMb8EgpFyrMbbKBxCj0z3UagPr+a3OjBtaPMw5pc+Bv8EYmvvXtCqZKZ/hHC7dTnPmRai/qgCjvBRcK7qsqIoiqKEzgEgBmgMmIV4dnkHaeoejRhN++fP+P8LmeZbQt/O/FWW4FxnyTnrhsMIEh93u01S7/77IBW9Evs0fOB5UwtfGc/+GoBwTGBOm62KaOMUYA3LUgvJ5P6siqwoiqIo4eDjr451c9aAyKiA1X8sJnIW8N3yNO7SpwDrqJpZk0XkxNK97rJaYnX7j0hLhWBFkzfe5OAbQZO2B1azLufkunRo+mHqUkj8DrAd0/sWvCqZBX/GbXwXsLjKIhOIRvYhw62B7wqH6YjtmOcqaB1QPVYURVGUsDkAqqrXBi+IbTiWMV1zBqM8lw+jr1wLBk5XFfNlZbbT2/xM6QzCuhMR9KTGkGwhE3wHgInshbUVxIsVkYqyeIpzHRg7B4ChkeicjcjMeqlw9WjLYjquRswPLAvOgIA7AOpnT0D4lnW5bGSe6q+iKIqihIePrwAYCeqX6giR3K/KrlbVA+cBY1TFrFmMZNtKtynuHI/hRyr2oRplZu0QGKN7+TNgFd+k448Ar/vQt70KXhfPsU9nZ5hCfef4YK/21UcBtlcZHi0757qiKIqiKMPi4xMAImsFuB1fJzpnCplZt5VFbdzE9sDRql6+OJtM64el2xR7ZwMxFfuQDeFgnwBYPRmlX7a3Nxoj3dr3w8EIkrweI5anosxewOUFrUqm+UXcxKOAjR7U4OSOAC4L7tBlOsa62+aq7iplyZiOiVRFxuDk6vGoBtMATl7DJZvCGA8ii0m99Ra0ZVVgQaE7wuila1CTqwUakGwEUxUj5/UTkT5ykaVEWEa1fMCHzRmVl1KWjG2PkYtEME4DA7KM6uVLSb2fKae56BMOADMBI8EVtnEugcvuHvmo8WIgeTFgdARYd+ILpLNXlOx19R2bAi0qdysmBLr2y/kaxvIrqOEZemc+p10/TCLSjYfttaiv5YM2FnjRNKYLsXYETQ+sA6AhsTUeW1mWWgYDevJFGUHaHOrX2hjj7ICR7cGsD6wDsi4wCvEg98mt1n+usTqDt7w8cBuzkHgL5DXE/BNH7mOM93cWtC5R+Y4kl9Xi1n8JZHuQbTCyHmLWgfRaQPXHt/QcEC9/XlkMOF6+b/sBN7EYeBN4C+F5RB6lhkdZ1DI/0A6QsYvzH2QX82744q+IYVxiLbyqKnoy7wY201dDVwPibQ98Gbz1EbN2fm5iHaCW3H+a6+UtbakBtxFILAFezP+R53CcB+mJ/h2m9o+cA8DxxucTAQSWLxAdczwZfjmitXCTRwC76OTui5NLOtk5zq9AqlTsVoyD7ghMzQWy9sbH8X8xf9FuLwA9zf/CTX6EXQBGl+ik7cnwj8KO/ey15CIXA3UWyrMNDcmt6Gl+KnCy98wMH3EvbiZ13GJVXKWkxK4Yi1ezP4aDgd2A2Me66+sjVRWwPpj1MeyJmB/SG+knlngYzLUY5zp6mnpU8KXYH3dtiMkdjJj9Qb4MXs0n7UIfjB388yUM+2MMZAE3sQC4GzE3konenQ9EW+6ySYwDfgLpY8hFxg2ufmlMxw3015zF0unvBLrvx19ez/La0yAZJ2vWgBy4dUug4yYMZ5Jqeb28G9BWRWzyHngcgpFd8XKb8N8PvVa6Wwdsnf9jwBNw072QvB/xbiTqXV8q56TzicE3PvCTi5GzGNO1xshVoHs08HOd5X1xB+nmP5Vusu34JsjeKnYfc0Z08dgA19/++L9wv3Z7YSZoDH+zLxbZvuBVWdyaAvNHe0NapgdP7t01IEf48BrMVZ1VSrS5doh2HICb+BNSsxDDXGB/inc9rwbhq4jMRrILcDuuJprUDzfFoKGrgWji+8Q6/g25lxDOB9kJqCniWycB0zHyR9z0B7iJ64h27Fq+MkqsAzxKPlPOuE/uVBHTTHX2CRoSWwdWB+pnT6C/5h/AGfxvGto6MEch5nGiyR3Lsu6xjm2JdSRwG99D5E6MzAI2pbCnvOtBpmBMJ72Rd3A7LiPavknpHAAwPgRTjUskO3Jp1dzMqWjaPz9k8bxTS7jZqAJzoYrdJ+IEdK5oc4DNrc1/sn/TTi+U7pi/+vAbbFEcfwQ+DFxzFLRXB0rm9akp1uu7kXdIN9yjCqsUl+7RxDqOxW18AWNuBvbBPlDlcOek0WCOwsjfcBN34s7ZTvulEIZT+xdwE7/Gy72N4ReI2WKEajIGOAxjHsBNPIbbcXR+D1hG+xKP3wNfWImSTsDjj4y/vD6Iiz6Rqu5V9P9YjNxIQ1dD2VQ7mtwFN3krYh5DTDN+Ukf7owHMdzGRZ3ET3TR0rVsKB8C4cMw6poWxHVuW/LXjOhpBfoDih8vpnfVsyd7mrtXqwxBU/jvEnNUCWe/opA2wzcwhPF3SoJRhx8ndb79/sL67PjRSb98DvGVZmQlEnW8GS+ZmhnUZjysDe81HCch83HEAbvo5xFwBbFgmtfoGOI8Q67hx8KusYsvEeWNwO9qQyLPA/wHlZLRuC+Yq3MZncBP7lMc4WGs/4MtD+OVkltUeFzh9cDv3QcxuQ/jlGog38u0b07UFbuJBjPwNZMpIrtzAoXi5Z3GTP82f5CuWA8BIPeEgQtZcUvK3ZjkfTfvnh0VI9c9K9raGrgYwbSr24TgAAjpXOBH7LxCGB7TDC0jPgn8DPZb6tlk+7kShafOAq0piUI8U9bMnkP+qausBuEqVVSnSGrwubuK2wS/+65bjCoeYg/D4N9FEnIAHxyqtsZc4hqX9r4A5C6gt45puDPyJaOL3jL5yhDOgmX0tNHO/wOmEyAEWvx05p8yk9jpiyYuI5J4Adi4jCdaBnImbemgwcHkRHABiwuIAAMPXiCYOLN2k17kDmCN19vfFmWSmf1Syt3m5M4HVVezDkaHUBbLeIvYng4SntMMLbHQb/m3XB2Y09amNirNWSBLbyGLCFMZ0TAzGWlh1DPZHqh8k0/qC6qpS+L1Sxzfxco8D3wpCbTF04CZvH9nYUkGgezSxRAcwj/+9413utsIhVA/8Cze57wjWYZLFr9cPnj1m1rX4deOI1DHWuT6ZyEOInMIng+OXlyC3IcLjRJPNhXcAhO3rteFiuKwEHkgx4GnaP388R3r+nJIOcjhexT7cWcOMCeic4ONqkKfp/wo+ZYq9TCMU51pXPvLwg5alqog4RwRE6af5WNLmqpIqhaXNyR9jNbcSvOum+xLJPUx94ovaj59DfedmuOnHEOIBbcHqILfhJn42GCeo1NgYnDWBk67I0OsslD6+jjtnb8T7p7/9YallaUZjJIGbvLQQJ5MGlb1rFGXr9fDN+kTrTiy+8iSOoryOiwQI7+SC5/de+fsupryPpQXEpgioA0Cw38BFqtUBUHgFso/3IeaLRdQLe4PXeDPLXsyx5Jd9bGr6qK69QXVUKeSulWjjFSBn8r8fnYLEOjg8lM8epHw8x3Rsi+M9AGwW8JY4wBm4jdeUV4BApchr5FRwbidwTkk5gVgyMVxdzU/GsaWjw7nP5MdFPao5qb0OMefpKPLFraRn3Vmyt9V37oZwoIq9AHgE8AqAGGyPlxl5R/NDF2NeFj9OlclFq8+o5d1Ar6U6bUHDnC+Vt8ozw0ehP7Do6LQqqVIY2hxinUkMrSFoTD2Ym/NGg4I7ZzvE3E3poqOXgsNxG28szelhZUSJJg5E5GogEsj6CzNxG7uGcxIg7z3wIpGQHmB3qeJcKNLRpF7nVMwI3VkJNv2I9/2SbkIc72IVe8EI3oQZnbMaREZZGnn69b8YZKueI2IdYH5S0erzwfG9uIk/ANOtynnODOCk8hRydw2kD7Mu5tClCqoUbt5tvAKRpgI/NQe8CryW/2M+wkgfQh9G+j8en0QxZjL5QIPbA2sW4N3ViFxFLNlDqvmuijb+cf5C4SP8vwbmOZA3EHkDhwxCBmPyJ0U9qcdxahFZK9+vZn2QrSjsFeb9iI2+llTbtwcDxSphI9a5J+JdT2FTjuYQngFeweF1hDfz85FZPLifHA3igowFsxmwBbDRMOtwNG7iVb830PMOAPEcTCScHS2miVjyt6SaHyvoc8d1NJI139eR5APDZaRnvVTCTcgMYFsVfIFwJHjHOL2aNX0Yna9oZxeBvqb3cBMpIFYWDoC8Md+F4023LHU0XHYanLC8/DY46QMQ62Cnb9Dzjma9UAqkg8nvIFKoL/8vATdgzANU8xAfNmd8bPrXh9zeiDkK2An/cZtqEPkDbueepGc+UnH9Wte+JsbchBTE+F+E4UY8uQ2Ph+lrWWj/iLYqGhq3wGN34JBh9u1/7IaDcBt/SpozdCCHjHGdk8l611KYeApvY7gW5B6qnYet56WJ88awZOAbODIF4SBgrA+D6iwEX/bUoANglJN3qobTXEG4FGQXMFKwp2adC0E07Z+9sr6Pkz2nZK8bf3k9yzlH5V7gMRU0IjkfqX7kXe3qos0D74KUjwOgt+kB3OSrwBcsSq1GdMw3yXBT2YnX1/F/M1e/eCkFIZrcEZFLh/mUAYy5GpHfko4/Ouw6pWa+BswGZuMmNkD4PoYmn4ZAPXi3Ma5jaxa1zK+cjr2slqrIjQjDTZ33EGJ+QSZ6O0ztH96j2rL08CTwJPArxravTbbqWIwcB7jDePCPiCX/Taq5Wwd0WGivJut1M/xMYHfgmIvoefuvw1ozF07rA24CbmLivBNY1n80womAbbo/X1mS8ht58Zxwd7rsRCz57YI9zu34CsjhOpj87Ps5g8WtqZK9b3ntaRTm6J/y8XgK3nwhPgxI47ynfV2s/hBb2Y6F7iLGqjFCPoWVbbEZZSfbfNybb1iPEGOuUsVUhs3Y9hiOdwPD+sIm12CcTUg1zyyI8f9p0vFXyMS/g8NGwO98PmV1spxfUX3r1l0EfGUY0+zTOGYP0vGdyDTfNHzj/3NY3PoWmeYfEsmtjcjPAb/vMIh04iY20EEdEqKRnw1LfzH/AG970vFv0dN8X0Ed5gun9ZGKt5N2t8CYWUDR95+DG/mshL7jhQsHsx0M90EGzCVo2j8/ffAUqWhnyd43rnMyRk5RwSuWuXbzeKIOgOL1h71sY73FdeRVSSf2R+G+WXY5wh0zHdusPmLuG/xCqijDIxc5BzF+vxAvAKaQbjm6JPrYE3+TdPwohP0H3207jx1cMQHjonN2Ao7zWXoAOJOUt23ecCoBi1tTZFp+jOdtA/i9qjEGMe2FSLmmjDD1HZtiONln6WWIfJ909KukZ/2zuBWdmiPV3EHVqI3BR4YiawdAZFR/BXT/usSywzcG3c5jgB10NPnRNuf7MLV0d02y3vn5wBtKQfGcIM4X9sajYaF2dtGwl60nxb0GkD/Ke7+t2wDHO7K85lk52l7XPQ3+pwyfWMe2wLE+Sz+CN7A16fjtJa93Jn4r3sDW+S98FogZjVs3Ofwd212Dcebg7/rfIozsQzp+DrQOlLzqvbOeJe1+FYO/j09G9iCamKGDO+j2h7kUfwH3PkS8r5Npubik9suio9Ok4014cgiQKcYr8l8JRvUuZ3kFODHFnE5dsoslzQt8lZ/UXkev/ExHkh/Z8wfSM+8p2fvczh3AO0IFXwSMtzyAtW6wnx0djQFQNB2S9+w/quQaSlCxLpCvWxrcTcAvy0KubucOiLeFZak09d6NBCf5n0M0cX7ljh3WL9cNFpK8Al9ZYsxt1GcPY8GxS0as+r3Hvg9dX8fNdQFDv+KZNUtCr3Ox9CkIm/so+TawB6mWEQ6oO7WfFM3EOl5DjH1MKGMuwk38kXR8kS7eASSaOBDYy4fdMh8T2YNM/OWRm5dabqQ+8RIOt5LPaFJgB8AHHyzDrYhsdvVUeedhm+7pvx1RdTrI2jqarOnHcHpJNyIkL0KvaRRrA7oscHUWRllrw6iBj7Szi4TnfGAdk9Uxo4per3T0Rtx0DzYOI+GLxDq3ITXziTIQ7HQfY+N6FrQGyYgxGE7TQVRmuIl9wWzvo+SDpJ1DSbeWwbrStIx099FEM1UYGUrcqNd8f1AKCuOudsku85Px6kM82ZvelvLJppNqOZdoYgyGH9pKAcxJwE90oAdyz+rH/kgTMVPoaXp5xOvfG3+GMV07EsndA74ccZ+/pcr/py1LiNMAfEoTjsFN2C9S4zoaQe+T+zS+LiYdL90i4CYPA3ZRwRfLxjDBOwFgsDceF4xdrp1drP7wcYpEKL4DgKlLEW6wr1tuxsgLtWsUNl8uPx7Qc1UhlQIM6h/6KPQKcAA0lZFTeWqOTPQo4K5VN9mE/yRKbvn/5Q1gK/qBb9Hb8nzZtScT/xHgI+CpnEBDV4OO84BR37kb9te2PYw5lJ7mp8qmHX1N75GL7Am8XmAHAABLK2WVAvMr66AeWfMLoE5HkzXvUWvOK/Em+DwVexFxJIAnAKy/Hg+U9L5XxdkKPk6RGKdE8TyMj/vw5qgRDwbm5g7EPo/wS2RaHlKFVIZFtGNX7J3uWXCOLs9j1VP7GV1zMPC3Fa8pdJCamQh1v06cNwaRk3yUPL0o2RsKxeiaY8G8YFkqhuedqIM9aPtV7wf2y7n5Fanmu8quLX1N7+HJt4CewjoApDAPDIg1sBNuYuhfSqLJHYHDdCT5EbX8iA+bMyV7Xyz3PQp8T0b5TJ8Gb66wPwGgX/+LiefDiVSSEwBApvkhwPbL1ThiY6aMsFTtj/8b6cL6LoaifGYreYKPheRc0jMfKdsmLZzWR3r+HiAnks8xvxxYBvwdI4eTic8K/dhZtnwaMN6y1F2kmy8p63YtnNaH8Y7G+uSzHA/t1TreA0KsYz3gm5aL4guknDPKtk29Lc9jzGFAtnAOAEcWV5YRYy5k4rwxq/5hm4ORS9D75H54ksw7V5bsbfWzJyCljDVQqVQFzwGApw6AsrIXTJleAfivYTzPR/1mjJg8R1+5FvZBjjwikWtUGZVhMe5qF8f7luX4eod07ILyb1xblnTLZaTj25COjyIdH006vguplusrZJ88zbJEFs87ORCOkVTL44h1ZoDxRKv21UEflG2fOdTadhPv9PK6kvR5utt8F2J+VDgHAFRWdEtDI0sHVh3YJDp5GrC9jiQ/g4+ToM0r2fsi1ecCrgq+2JuCbACdhZZXAEwArzkEa27wcQVASpfSc8CZh/3XoX2oa19zRORZMzAN++jrd7Fo5tuqjMrwxsqyb1un2/WcM2DqUhVeGROdsxHwFctSv6V31rPBWYfkTLDNfyLTVTkCY+fZxsR5lEz8lkC0LfP2xRgeKJADwCyuPOXwTqMhsc4K/3385fUYOVdHkS+upzf+QMne1pDcCqFJxV4KB0BVEOcKu/vZYvq1o4s595bxFQBgMLK37R3AKiKRo0ZmTFp/qQPjJ9aBonxmk32kZYnXyESvUsGVe786tnPKAFVyQaDa2NeyEMMcS32fQrR9dVWQMsft2hDY2nKPcU5wrvW0eUgkDvjO4PMJB4BUXsorMaPx+PkK/3157WnAJB1J1pv7pTglTtPkeRfhK/+wYm2G9danAlhv25MojnZ1MbUoUuXDYM2WtI6GLh9lZpRcltHkjiCbWJZaRMq5RRVRGRaxK8YCu1uuIO0aYDUQHGw5+f2eRS3zg7dfjVyO3WmvGoh8S9Wj3PcY2f0tS7xFxr0jUG1MN72McOnwHQBi3q1QNTmCaPKz0WvHdU4GTtZR5GfgORfRE3+zhBvg/cHsqYIvCR/B1OB9Hbf/4lyrXV1EIp69fP1kDhgOKfePwIeWpTYnlvxyiaXpw+lgri37e45K+ePV7Iad430Z5DpVcGXOuI5GYFNLZbgskG3taXoDw62Wa5HuN8t+z2d2syzREUjHZCRyIT6v8Duf2CAvqFQ1wXiXQtv/fvHL5i5C0/75MbTeYXR1CY+BtVdj5EIVfIkQ3glmvR1bY2eUdnYxDQdjL1+vxA6AvKPrOh9jZEbp6tg1CiNTfax6c1UJlQKs93tYlriTTOuHKrgyZ8A6oOgbpOOPBLfBYjvP72WdSlwpIW0OtmlJxesOZFN7mnrAXO2naNUnNlcLKjfOvdkGd/LRpMlHfo7O2QnMoTqIfBmIp7NwWl/J3udGjgM2VsGXaqgQUEeh5QkAI3oCoKjdIbUYywVnJAIzGpmLmP+zbNwRcNkpcELxM0m4uYOBBstSz5JqfizQqww8UcGjZyMgWiYLwh6WPafXTgKxzjt75YfZUH9v/hDolIhjvFvpjSxh6B/9JlKf3JxenlFlKUMaJm2Jx1iLEi+SmfVScMerLMPH6Kv6xAMWVHamO7mQcVffzKJXejGRS9S754tHSMevgZbSvC12xViEM1XsJXUAvBPQmttFnBajDoBi4jDKesESKX3U8FTL40QTT2HYyqLUOGJ1+5PihhLUcIb9UmeCfgTbIx3/csWOnWjiPozlvfui1KN9dWAzq37z5Had/AKxH97NckTeHOjmLmhdgpu4Bxj6vXGH3UEdAOW5QpidLUtU5Lz08bH3rMyvcJWZSHbZqfm0f7KdjiD7FQPkpJJ6gaXmLGA1FX1JezmoV4Vsvx470F6tHV60Bdr+CkCpYwB8/N4rfYyT4qeKGn3lWoDtEewsnvM7VUBl2ESqtsDmq5HwNH0tC1VwZU5953hsgl8bWUom+mgIWn6/5bqwlSpL2fJFu/Xa/LWyHQBLZr3HMNIJhAIjJ2PkfB07vizD35Fuebhkr8vnqD1O5V5yB8BrAa24vfEYy9VrhxfNqB5j34XOyDgAvIFrgAHLUntTlyxuBpma/hnYZz65nb6m91QBleGPC9ncssTDKrQAEPG2tNMD83AgAwN/lr9b7oW2VGUp2/2FXQBLz3m0EsXkfNL6xcirlW3cmNHARB09toNNlhLxflTadzoXAfqFtvS8ElAltXdu5qrX0O4uGvbzrBmBKwAAvce+j7E+IlhFRI4u8np1jH0ZDf6nFEwBbR0AD6nMArEP3sLS2PpHKNqdzj2J3UfQzT8TPFwpEx12bBwAb1aqU9wJx+ZeGdnBxnksbn2rZO9rSH4N2E8FPwJ4kVcDqqP2R0+rHHUAFK8/1rRfrbyRW6Q9sTecDTOLVp986lrL4KfmfTI5vYOtFAhj5wDwIk+ozILQrZZfto15MhwNbx0AnrMoMIbopA1UYcoMNzEOZIJFiacqVVTqAFCGu5GfT713cele2ObgeRep4EeEXvpmBPMOp580p56nDoDibTLtZZvNjVz8icw7twO2DoiNcRPbF2fl9mb4mKyvGdzkKkohsDF+PPrG6P4yEHs6sTNqc/JiiFr/gt06ZtQBUHZ4X7AsULHz0v86ADzzkiqPYmlYncqC1tLFjog2zgSzjQp+JDYGvBrYVD/G8ZG9wKgDoHjYXgEYoHfhCOYPb8sCfoLnzSh8XbpHI+bb9qu9uVLVTimQDkYAm69s82HqUpVbILA5neXRGwmTAWXnzBBnTVWXctunWp7cNKIOgEFBaEoLxYaHSMevK9nbVk9GMfxUxT5SRjRPB7buno/sBaLxQIqIrXPlXWjzRlaHPD/p846E7tEFrYeb/jYQsyz1OD3NT6naKQWhbvEEbAJQitGv/+F0ALwNTctC03IjL9v93puk6lJ2nTjB6ucir1WqpP7XATC69mnAUwVShmRSwUkl/SK8nB9ZLk5KIZEAOwAiPq4AGCZrpxeDtip/DoARpnfWs8DjlqVixFL7F3Ycmhk+Ss1VvVMKRnW13Trs5wqWUnrGtsfAKkPLu6Fqfy5iec3L6H607Kxay6ubTqRis+L8rwNg4bQ+4A3VIGUIzCMdL13qjHGdkzFygop9BDEmuA6AntwC7J2bm2qnF4HomhsANXZGL++UR+Wly4fBPr1gr29IrIOR3S1L9SO561TxlMINg5ytA+8DFVoAGHBsv2gvDJcAcu9bFtATAGU3N1me3Oyv3LnpsyksDP9WDVJWQS9Z8+OSvjHr/QKoU9GPIFVecB0AtA6AsbtDbmSTwbuuSkEXaGcz6zLGlMmXJnMtYHvkdW/GdRbmNInH9M9dt1fOH8m0fqiKpxSQcZbjV/UvCBinwXKNDFe/mpr3izoOlFJ04lirny9xFqkD4L+bM9F7gsqqFvPzWNJcuiN90eSOwFQV/IiyiEUt84Ott2IX4VfMaNz0etr1hV51zBd9WL7lEaA2HV8Ecov1OpvLHTX8l4sBpvlQ/C5VOqWgiBllWeAjFVoAiGDZryZc/ZqZtgiwuNZqOw6UElBrY/6HKobFsB0A8Kjqj7ISXifl/LKUOw2M/AIwKvoRJfjzgvg43SRmM+36gmMvU6ecTqY5c33oUdOgAe+f+q6vArYpjt4j/fbdqnJKQTGWhqIYzQAQBDzPLmCpEDLjyQjQP/Sfe+oAKD9s+mRZJQvqcxwA5mGsPGBKZS385gcl9Zi5nUcCO6vg1QFQAAeA/ekmRzbXri/4HsveAZCrKZ/rJ+m37wTetiy1EW5ih2G9NyLTfej8lYMpDBWlkHOp7QmAfhVaEBwAlv1qzPIQSmHobRI9AVCG2JwAqOh56bMOgHR8EfCy6pDyOfyd1MwbS/e67tEg56rY1QFQGMPTzwkAdtCuLyBj22M+TlW8TWZ6GR01bfMQc429LvmK3p9n4rwxiHzb/p1ypSqdUvido9Ra/d5TB0Aw+tXSoA1nv1o4ABitSlNu+zxRB4BvB0CeR1SLlE9P9Rg5saRp/9zU94F1VPTl0PsD/wx8G9Lu00DOstRuGgiwgOQiu2CTPzxPGQamzXVhe1LOcDiT2v0FMl0ycCgQtSz1EL0tz6vSKQVHjF0WD2MGVGhB6FeqLee0gRDK4F0Lva5RpSm3/nNsdLiiT8c5K1Dqf6gWKZ+a6DtJtTxesvfVta8J5lQVfFnwKr3Hvh/8ZkxdCrxqWaiBhvSWqgKFmkdkN/sFvQwD02ZmvQTmIctSMXqdA3zuauyP/xsN/qcUDUvDz1SpyAIxP9t9EbV1GARjr7vEQgDLVWnKTodtjPqKnpc+3wHgZe9XLVI+ud0lGzmzpG+srjoXqFfRl8WEGqb54EnrEh67qxIUCDH2DgBjyjP9pGGujyXX3pBv6FoXw1ctx+xSjHODKpxSpHFsZ/g4nn4pDQIelv1qeRUkGNi0aZkqTbnNTVY6XNHz0uc7ADKtL2DkHdUkZXBA/ZS+pvdK9r6GOV9CfHzxUorU/859oWmLwU9bdlMlKADjL68HtrGefbK5v5ZleyK114PN1yIA2YtxnZPtNuXZGaz4ut6KpHYjPU09qnRKkeZRO8NH9Kh0QCwC7VcbB4ARdQCUHzZ9og6AFQzsv6oeKcCrZJb8uqRv9MwvrDe8SvEYqLo/PBvXyJ0+Su3JxHljVBGGSf+ob2J75M7IMyxpfbcs27Po6DRgGxTVISfH2OywwRxjr+d6/F8pIweA0WjpwbAIHLt0jUbCGARv6LoqRq8AlBt2fVLR89JKHADcp5qkIOZkOKF0k1w0eRCYPVXwZcPLLJ0entNAPU1vAK9YlhrDsuVTVBWGPZkc4WP+Ke8c9kbsDW2RGXnDfgg0dO4OrG/3fOaTcu9XfVOKN5Qtj4oj41RoASCXs+xXs1oIpWCjq0tVacptTfZsdLjOd2DeUDsAItytmlTx3Eum+ZbSva67BiMXqNjLaqd3bwgbdZePVeVw1YXhbKmudhH28VGyvNehVPw+4DXLUhsS7dhxSL/0vBn2qkonTM2p0inFWxZksaVSjlehBYGIXbpVMRPC1f7LaoEGi7n2I9WZsjNre6x+vpTV1QHwaXrib2LkaVWmiiVHLvK9kr4xmvousKGKvqw2ereHr00+jEphXxq6GlQhfDKw9BDsj9v1M7rmb+XdMCPA1T422quOcTL+8nowB1trqsnNU4VTiqv2nl1MIPHUARAEqmstr1tJuBwA4+rt2iMsUKUpuw2e3dzkORU7NzmrEMztqkwVyxz6mkrnAHIT4zDmRyr2smI5owbuD98mZ9RfsE5jRS257EGqEn4NBuPj+D9/Z+G0vvJfRSNdgGfpNzh8lUcPl9VOxTYTipEHSLW+qgqnFJUqY2koOhNVaAEgH9ek16LEGqFqf04s9VTeU6UpN/vfcm4SEwYdtouZZmpkKIXUAVCZ9CC5n5TYQvgpdnevlOJzHx8c3xu6VuU3OT6uNpiThnx3W/mYaPsmwNftxS03B2O2bHoD4QHLUi69VSt3KBlmWNfF0+B/SinmUG8hVk4v+YIKLTDYGFCNobpDLZ7dCVRx9ARAuWGsnTIbBF9vjV0wzpr+pat2AGSiDwEfqkZV3Ag6m0xr6fo92r4JyCyVe9npwR0hbtu19kXYkljnXqoXtnKLnIZ9Vg+PrPP74LTRj+G9klSnsY71gF0sH9jLqOV/UIVTik/rALDIosB60K2pAINhQNkYtQ5LnQ1C1PqN7WTlvasKE3QHgNkwBG22cwAszqcvXsWmbGoOuE01qqJ4kXT28hIbCBcD1Sr6skJw5JbQtq6q9maM2EfwFe8HqhoW1CUnAUf6UL+/sKQ5OF9XRlf/AchYlvo6Y9vX/vzmm5mA3WkTQ3coT+wo5YpN8MsI0cx6KrJAWBN2V4g8s3GI2r6J5e9fKshey2LnEjyRWtTZWF6l+1x9rHnDUvwbhWC3bpOmemDQgTuUrzKmWyfEirL7Tv6PcpSEWOLrwDdV7mXHo/TE3wxt6xYdnUa4wcdqtiexjm1VPYZItXcS4OPLX8COsi+c1oex1icHzznms3/d5gDT7Dc+MlcVTindxt48a6ntW6nQgrAFNHaxnzy2DlHrt7T47RLS818rwDtt9ttBvG5hE8emf9hvy0z/CFhoUWKbEFztXMtKb/87Ja+KdPYe0FQXFTLz30O6pYTHvrsjIL9SuZejKsgNFdDGdp8bpPNUQYbAuI5GxBzro+SHpCM3Bq69fu7fi5nxmc1HbO09gLUtn/Q6mfiDqnRK6fTds3MAiHxFhRYAbLN/OewcinZH21cHbE4APANtw/9iLcbGAVAD7UE7LVtaB0BepjZz02q4c4N+jWWyxW/fH7oDgNaBwARjUoZDFs+UNu1fLNOCmC1U9GWIE7kp9G3MzPoHwlM+Su5FfcfBqiSrnFEuxjaKfX4D2gVNy4KnT80PgnnBstQGRDv/dwMtuRk+ZJYcTEmoKKUyFJ+xLLGjCi0A5Jx/2xlb7ACX1YZg07MzNteuCpUm3YjdWudGoiF2ACwvjEyxnJtyAXZOtlcDkywG7JsWDgAq42tgxSOz6Y0/U7LXTZw3BpGTgMUl/tOnfb3K2fOfpGa+VhlNNb/wt1cwlzBx3hjVlRUQS3wdzFQfJQdwvN8EV5+4yl6XPhEMcNzVLhjbdJMejneVKp1SUgZqbfcL27B6MqqCK3N6Z36AXSaAWurrg3+6w3F2tXR8/LswL5bFdvUkaGPItfjtooK80VieTjLma8Hda1VvgU0MNWPe+M//HFpwhvSCe3EbF9h5GZQAsRipObukb8zn996k5C11E9cCh2uXr3RBuqZimpp++3rcxnOAdS1LTmZp/w+BM1RfPk17NcJlPgv/jsWtbwW26f1VV1I98FMgYrGRPJzxl3+PD47vJbf8MOzved4TaJkpwWTp9HeoTrwODDW4Xw0D3t7A71V4Zc8DwGFDN0q9g4C/BnvbIwdaOgwK1V47ozdnJgPBiM+Uv1Zh8aFECnPdPCd/x7G41i98K38leWougIq7veXv/+sAGGJqprYsgn5hCK/Bd+Zg4Ixw43Z8xWpRq0yy5OS6ymluWxZjLvBZ+FSiyV1UZT49ziIXAJv5Wbbx5IJAt33p9HeAey1L1bO89qDBjcgMH/P3XFU6ZUQw3GenqmZ/FVoQ+tXYzWHCIYEOpJYP7PsFixIf0vN2Ya4A4FjuveULwdGjasu6msLYIb0tz2EVCFAmEE0H8xSLiF0MDs95ztIBAOB1YpeuQgkGz5P25oS/mWLAXIRtaq3K4w76WhZWVItTbyd83N0GqMbIDdS1r6lqM0g0uT9wks9N5zx6W54PgRT8ZDCYjtu1IYjtPekU9d4fVfGUEVpW/2JZYj8mtdep4MrdcHPutvs9jZ+JZRKsBtteV7u3IAEAAcR7y1LWwcmmYXLb2MmCNwr0YgHut5RrAE8Gt1UB+1oVyWUftncAZGa9BDysM2PY8L5X0rR/I4WbOBxCEq22qOogV1Zeo9uyGK/NZ+E1iFRdnT8+VuG4iQ0wMg9/TrblGDk7FHJIR24mH2/Ehq9Brs1adsJ1LGhdohOXMiJks7YOgAYyjp7CK3d6mt4AXrUzoLzvBrOx3aMRmi3n3XsKt+eqso23tH1wZOtsZ/dzKVzsKdvTSXBM4OI61a+9M7CaRYk3WdL6rr0DAEBMUmfGMGFuIz3rzvC3s2sUaOq2IfAhvUtvr8iWp+LdGB7wN4xkD9z0xRVu/I/DyI1AzFd5kYvpib8ZDmE0LQNsr9E4wJH2uud0oSgjRX4z+Zilzh6rggvC9lAsU7Gagxnbvnbg2hlLT7M0orJ4kdsK9v66Ja9jd7p6e8a2x8pfsGLA+4adCplXC/b6iHMHYHNKI8ay5UcFSncdL25Z4uFPbzqGTjR7LYWK0qiMNP1I7pSKaGnMOxlYR7t8VZMvnXDC8gptvJDzjgP8noY5ETdRmU6Ase0xMH8eRkrPt6ir/XnIpDK3BO94kfTMR3TiUkaY31kaBtsR69xTxVbmZKts435VkYucHqxGtlcjnGy5V/gzfU3vFawKHxzfC7xiUaIaz9mn/PfdndsiZi0rm6RnyXMFe/+imW9jeNDSZ3E6dNcEQnXrZ08ADrXU3Tv8OwDyRw3nooTA3jG/HrzWEW7qZ09A5DTt8FXigfy2oiXQO+tZRH4xjCecjJv8aUXJbNzVLrnInSDbDeMpxw1mBQkP6fijBcsTveLNip7IU8rAUMxdB9hFz/a8i6DNUeH9d0M29C+VhtLIra/paeBflqVmUZ/4YmDE7kb+D9jIrqtkXhH63+4UjZiZZS9b8ZotZfBUET5AWTonWQ831RII3XWqTwNqLUoMgNzm3wEAYHJXYHesQik/PsA451TGulp9DnZ5SCuVP5Fqeb3ipZCJnY3w1DBWvTOJJs+riM3tmI6JZJfdCezgf3xKknQ8nNdOPDOviE/PksterdOWMuLkrwHYxQIwbIW71pEqvP/Og/0Wvy5lEEXbOSyCwy8DkREg/wX1J5alFpOK3FqE2jxq+fs9ibZvUrayjV65GhjL4/TyWMHr4VX/Hui3K+T8JF//MibWsR5wvGWp+0jHFw3PAZBqfRWogHvjYV5sOJOepp7Qt7O+czMMTdrhQ5p8r1AZAEztx4scg5Glw9jMnY7beAsNXQ2hFZOb2B7HPAYMJ3XO60RGnxxaGXlyFf6vlKxKyf78yWA+ijKyywc+1g9zGaOvXCswbYy2r47btSHjri78BwW79aZ0gcoiuU7Adq+4F27yhDJXWINT3QHYrdEiswdjvBR6rbANKuhApHw/4pmBHwFRyy75c8HrkU9v3m2pGxMg+9uy1l0xV2D39R/EXPs5SuRLWy/VFS+wC/W/SbmJimir410CVGmnr5KXSb/zZxXDIH1NTyPOcI+BfQsv989AHYccsvHfcTRG7sfQOIynLMPIoSw6Oh1ePWpZCBRnXBm9iqeUEZn5twC293fHUj3QVfYZVGIde+EmHsFEPoDcS2SXLcJN/pmxHVsWcEDb5D+vZkzXGiVp++LWFHC5j5IXEOvcpmz7NJo4GdjfdkZHIpcUpT698WcAuyC4hoNx5+xddrJtSG6F/dfp5dRV31uU+uQiF2Kbwt7It4l2lOfHw7xzzTYGxEIyfQVyAKRn3QnyhK56QTSK5fswNRf6dkbnTAH20g4f0kJyccFy2oaFdPM1CB3DfMoGODxCrON0aK8OvEzGdTQSTfwezFWIGT2sZwnfJdXyeOj1yJNiGOofkeq7TQepUj60eWAu8FFwL9z0ZWXapiqiyfMQcyf/m3otArI3OfMQDcmvFeRVYuxO81RnS3f8W6p/BWQsS9Ui3p+JJjcuv71h8iCMOd9+n2R+S+/MD4pYM9urBQacLsZ0TCwb2U6cNwaRq7H9Og33Fi0OUD6WxR0++rudWEd52RCxjj0AH/OsXP558RWGc0/1Il30gmboyU2kWu6ugM1IFcY5Xzt8SErxPil3nsrhc8jkjgeGO17qEHMebuTZ4Ea+bqvCTZxI1jyL4ZACPPCXZOKVcQqpN3YbUOBNo7mmcrN1KGVLOnst4CeP93G4HWeWVVvGdK1BtPFujJyeN7RWMLd7ci2rJ6PDfp9Yfv0Vdi7dOjj9I4Tf+Cg5HiN/oiFRPhmYonOmYOQ67E+GZhjIFjfLj2P8rIlr4pi7yuO6YXcNS/tvQLA/9SimuPsB8X6O7SkAqEbMDbhztisL3XU7d0DMzdg7V3rxIp97pcG/AyAd68YudYUysvQjVZURDd9t/A6wuXb5kGbGX8PUpSqHz6N1gEjuUIR/F+BhGyLeXbiJ7rI+GvkZw7/jCGKNTwKXUIhgmsKNpOf/oHJ0aGo/9pGIV7FRzHXp2FTKcr4U70R/Zc1PcZOXlkXw1GhiOpHcsxh2H8KvJzIgww9maLxnLQ2mA0srk9w5+HPurIfHY0Q7dh3xfo11zMI4NwI+0rzJGUWPudLT/BT2wQDBsCVe7k7qkpNGTLYNXQ246duAfX2UXkDm7VuLWr/MrH8A1/rRGnDuI5rYb2RtmsQ+4N2NbVwFACPnrujkyjAm26k5jPxSF72AYLiEdNPLoW9n3hN6lnb4kOhDqmerGFbC4tYUMrAX8GxBRiEciniP4yYezC8q5Rgt+bJa3OQ03MZnwfzOl0f/85t/J5nIURV33SQXKVy6PiNP0zPrXzowlbIkM+s2jNzkr7CcgNt4a8nut39m75DcCjdx12B8jXEWg3KHYb+7tv8ZIGtR4svEkt8omWwWtC4B+a7P0qtjzF24HSeMiIMndsVY3MQ8xLQDPq7imX+Sjl1eotr6ja+2PdXeoyNyZN3t+Ape7mH8Xrk1/AbaskWvZy5yCpDyUXIMhhtxO9pKf5Wzu4Zox7nAbb6Mf3iV1NJfregfhzcYU0s7gbd11St76/99nNzPK6Kp4p0BrK59PqSJd/ZglFRlZfQe+z65yJ7A8wV86s4YbsHtfA43+dPCBpTyudC4yX2JJTtx694FuRLb/Mgr58+knQOLEkG53MnfQXyyMPObSeqAVMqaSOREoNdn6W8SyT2DmzimZMZifcemuMnf4ckTvowY8YYfxPCD43sBy1zwcvlgKrvSkG65A7jOZ+lRYC7FbXyQhsTWpalwm4ObOAapfQE4xudDBnBys0oWNys9/zrfJw7FrIWYu3AT1xKds1HR6zquczJux2wwfwf8xnp4l1E1pYkB0tf0Hhi/V42qwJyFG3kEt+MrJalvQ8fuuOlHMOZHgJ85RkBOWNl1wWFOsCcsx5jKMCwDbRTLDwejuYabWOf6iPyfdvjQpkNyA79QMVgsHlK9K/BwgQfnJiBnkjNP4SZeIJo4n2hiP+o7xxe9TdHkxkQT03ETc3HT74HcgUgTMLawLzLXknYPqEjj/+N+nluAh/TjOb/TwaiUNYtmvg0MJ4vKasA8Ymv9i/qOg4uTJaCtimhyf9zEXTjmWZAjfO+HxTxboErdZfn7DXCq78NNbF+yvq0a1QrmhWE8YUc8HsdN3ko0UaQ4BpfVEu1owp38LDAvn9bN79IlJ5b2xFWbh5EfDvMhh2Oc54km/kA0uT90jSpc/dqriSW/gZu4iqz3KpjvDMuONJxdtOB/n+tgefty4PZhPGFrMA/hJm4jmtyxCPsEM5h15E945j7gS8MZCINOu5WIvxAK4UZeANbXla8seZL0/C9XxLHbaOIPGA7WLh/SxHshqfhpKghLJrXX0Re5BuHAErztZeBhhGdw5E0k8gY582bek22zYDuNGGddcqyDYX2QbYCvDG60i61nF5Gaf1rFZ5mIXrkaZuAd7AP4fGJvwI1k4oeETjZuctrgiZOhkiMdr9z0rtHEfUO8n/4fvekgE59V+n5N/BL4XgGetADD7xCvm3TDE76/xrqJcQhfxXAgsB9Wx/xXSD9VzgaDTo/hUd+xKY55zkdJD8zDIPdgWAAsIsdCepc8UpRgodHkxhh5BIgV4GmvkD9VcCvp3JPQOuC/b2VXjDmEfHq/4dfNkCAVbxmRMe4mrgUOL9DTMsB9GHkUeBTHe5HF7y5Y9bH7Noe6yWtQ421EztkOZAcMe1CoDwRG/krqnT1KvjeIXTEWqXmsQDbri8DVGOcOUvVP+ZubuiNEM9uDNwVjDgU2LIBw/0k6ustgDKJiOgCAaEcTxnSqdVCGeOxGb/yB8G+K5uyEcR4smE6Hmz68gfXpPfZ9FYUvS8zgJs8kH2ui9HcajSxFTApYgtCLoR+kBzFVGKJA3aCh2TC4ERqJPNtLgBbScf1i/bHh9vthZVEQbz8ys8KX/k8dAOF0ANBWRbTxLgxfK+BDM8DfEfMvHF4D71WMLEKq0mTNEmqzVfQTxYm4GG9tYAMwGyKyA7BpwfcHYk4l01y4k3Ru4iHyztlC0INwHpn5FxXcyHI7vgnmZnzdqV/JmmHkn4h5DjGv4/AmmEV43lIcGTw9ZhoQU4MwCSPrgqwHzrYgGxe4bx8kvWTPEcu2kjdSnwImF+kNOYR3gUUYBhCTwngemAbyGRLGAWsWuH8/SQqHreiJvzki8m2Y8yU850FgTAGfmgYeBnkRzKuIvIET6UPIYHJZxEQwjgu5BsRpBG99MF8CtgbqCzcnMZ+q3M4sbn1rlVvJwryxO4KbeSZ/nFUpI24gHZ8a/ma2ObiNjwBf1i4fygQhPyfT8mMVxHAX6eQ3EJk7uFAqH68qz5CNHDl49135eHP/LfLBfPywkHRusu8vZOoAUAfASLB6Mkq//AlKmLauNHgYziAVP6+wfdtxAMbcXOC6ziUdbyrSfPZ7YFTI+vZBasw3+bA5M8LjfGccuRsxo0Mm3xzCt8nEbx5Z+XbsijF3FNT4Hnk+xJOv0tsypHhVBfp6NTWH5CootVMgWIYTObUyNkSNx6jxP2Q+oMq7UMVQAFLNd+E5WyHcqMIY3BTDpaQi26nx/zmk598J+EslZWReKI1/Jdx82JxhdM3eCPeHaeZHOKTgxj9AJn4LmH8U+KkziHUcVvj5LH47mIOB8MR2MfJXapfvO+LGf14X/o4nU7HLDlHuCMJ3Rtz4B8i0/A0jB5A/rRgO4984ew/V+C+gAwAGjybehVIuXERP0xvhb2b3aAw/1e4eMj+tiICQpaJ35gdk4ocg7A+8WbFyEJ5CzC6k4ydVdrC/ldGWxcjVvopmq65S+SmBZOG0PmrN/sAtIWjN4ziRLxXPgDFCzvkO0F/Y+dl8tyjVTTf/CY+98evYLCvj33SRqtpnMCNDeZC3q6YXXB9GhhyYE8nEE2VTo1TLX/DYF0zQr8M+h3F2IDXzCZtChb2/GpEf5DtZGWHeo8ZUxldeN3MqsLZ2+ZB4jbQ7R8VQjIU6fiu1y78Ipg3/KbCCOdcYcyyZ+V8m0/yQKsIq8Bw/afweDfeJCrH9wpWtbCUytve5Rz4A54fNGdLNBwInBbT/BhAuIL1k56J/WOlrehojJxXYr7BN0dIq9sYfwHO2Au4O6IBaBpxEqnlmWTqv0/HfId7XgIUBnrR6ETmEdPOvy69m8Qeo8rYFHgmobO8gktuJ1MzXbAsWdkJY3PJvTEHSHSnD2k9xelkcYSo2dclJIHr1ZMibAHPqqqKCKsPgg+N7STefTS6yIXAp4Tla9rlbeuBMapdvSKr5t6uOKKwAkGl+0XqjYUxXyKVieyJpcUXrkONZysuUibyMkI5fimEf4PUASfxBJLclmfjpJQsKl2qZjTEXF25PaKphzeIFg+2d+QFpd1+MnBGwde9hcpHtSccvLe91Y9Y/MLIj8PcAzlj/wmNHMi1/LNsaLmqZT3rJbiCXEJyP2GmMmUW6eYrfU72F9wh63unAR7rTGzHr/wky8yvjuGiVnEtho3iG2PjnAVIz9a56Kehreo90/CQ8Z10wPyPYnvtP8wrIidTn1iEdP6esjksGZiwam1MASzDOdaGWRy7yuOWm65+VvcRb5p033rNlVf9U/F7S7uYgZ1Pe98efxzCVdPNXybS+UHo5NX9/UEZSgEnnleLHEJmaI9VyLgPVGwHlvgd9DyOtpOfvHJjTVamW10k37wpmekBsrCUgZ5N2d6A3/kz5V/eE5aRbvofjfRko59OMgpGbiOS2INXcAcb3/FCclGmx5HcQma07vRFQDDFfJdP8YOhbmk/j8TgjkYYtePTjyZdsgoMohaS7hljqIMRpAtmD4qXWKeJCzu0YkyD19j0lz9sbNia119EbeZ6hXF0y8gtSLeEP5uombwWZMkQD+GAyzTdVrP5E2zfBRJ4d4tqXocasVbYnAmPtXwDnh4g5mnzq0nLgOeB80vOvKYu5LjpnCsZpByb5t/85nVT8gtLWu2NXjPk+MKVs9mlG3gF+Q2T0FSw6Oh3YOaB+9gRMzfcw8h3y6X7LiT4gQZVzMYtmvh1QU8rgJo7CmNMQvlhGFbsbvB+TnlUQJ3iRcqa3ObiNf6dw+UyVofE70vGjKqKlbuIe4Ova5UOZy7ggf3xRGXEauhqQ3F4I+wEHAtEyreki4F4wt1G77Eb90l9oPZjzJTznHmC1lfzqLtKRAyoiqGJDYh08ngJiq5jLbiQTP6Ti9SfWcSFiVn39TWgpq6BbK2JM1xo42e9iTAswfgRqMAByEw6z6Wm5v+zkk0+neBpwHDDWsvTjpN1dYerSEXJgbIRxTgQOJ59fvvQ7IHgE5HLSse5QXYMcd7XLwLJZGJqAzUa4Nq8BVyK5K8i0fhiSzbPB7dwH5BRgj+LZzCulF+FaHGkn1fJ4IR9cvMaM7diSnHkcqNx8vaXEyFKM2ZSeePgjkUeTB2FEj7MPbembz6jlm6oBV4ZMaq8j4+yFY3YBtkfYlpG70vIR+aPVj+KY++mJPgBTNaBrcY2eLXByl30mp7uRpYiZTTry44rKqBDr2BbP3IyhcQW/uIH63AwWtC5R5emuIZa6AjHNKzZ65CzSLT8LWLsixFK7IeYQ4CBgzSK+bAlwN8ItiHMrvTM/KHvxjL+8nmU1h2Kcg0F2Z9U5zP+ENzCD3mPLIMp5WxWxtXdHvIMxsj9i1iriywYQHsSYm6jybmJRy/zQTwn1HZvimEPIf1jYqgS2l4eRZxFzCw5/oCf+ZKjlO66jkSwHY8whCLtQ3FMtacTcBdxOde2NxTqtUlxvhpv4JfA9XaxLYumdTbqlrSI2Pm76GWBD7fOhqEWFH5cNFG1VNEzeHPF2wDPbYFgHWAcj6yJmdIFeshjhLQxvAS8DjwOPko6/ovIfIdzE9sDOIDHEvIUXuYO+pvcqUhZj22NknTjGHAKsD/RieBqhnXTzncO57xhKoh0HgHMCRnYCRgEZDPfimYuDfxVQDNE5G0NkBww7gOwA5gus6pTIilkA/BNjHgV5hDG5h4LtTOqOMDa1OR6b4pl1gHEYXPJfvD8E+RPp+CNlO2bGtq+NF9kBzA54bI2RdYHJ2F+RW0Q+Be+LYB5Bco+SqX6iotPRTpw3hiXLtwGzA0a2A2c9kMnAGj6f+CHIW4h5A8c8Dt7DREY/FuhrFMMhdsVYpPYr4OX1N+9wGY6z8lXgMcQ8jsgj9OYeKn7MjmI7APJ3HZ8ENtKVupjrJPOpq9mEhdP6wr/hSZ6MkYu104fEDaTjU1UMIaB+9gQiNWvjSSOGOozUI04dRmrxiPEfb7RhOYYliPRiGACnB5E+PO8NRkXeqojsIIpSeZsAw9g5rt9o0IGioasBvHXIydoYovm50IzBUAOAh+BID57JYrx38Mxb9MbeGLEj8IoFbQ7j1ppElkZMpB4vNwbH1IBpQGQZhmVgUhgGyObeZ/TAm3q60YauUUQH1obIajhmDJ43GodReFIPjoMjaTyzHMcswcsuQcxiHTs2svXWwWEdPFkTR2rxTAOGGoR6jPRhTD+YFMISHO8txHub1PL5JcsuUlIHQN5g2xEjfwMiqiBFW/yPJN1ybeibGbtiLFLzMiu/N6vk+YicbE5fy0IVhaIoiqIoiqIoUIrInJnmh4DLVNRF4yHS8esqoqVSfbYa/0MW1klq/CuKoiiKoiiKUloHAEB97gzgJRV34a084KSKuBcZTW4M5jva5UPiDtItV6sYFEVRFEVRFEUpvQNgQesSjHME0K8iLyjzSMcfrYiWGi4iePnTR4IPyebiKgZFURRFURRFUUbGAQCQmvkEwo9V5AWjl6z5UUW0tCH5NZAp2uVDQEwzS1rfVUEoiqIoiqIoijJyDgCATPPFwO0q9gJgzHksaV4Q/oa2OXjeRdrhQ7L+f0um+RaVg6IoiqIoiqIoI+8AwAg5aQY0ONnweINU9FcV0dLo5CYw22iXr5IXGV37fRWDoiiKoiiKoihl4gAA+loW4pgjgKyK3ydGflAReTnHX16PkZ9ph6+SZTgcwcJpfSoKRVEURVEURVHKxwEA0NN8H1Ih99cLb/3/g1T8DxXR1OW1pwNrap+vApHj6Ik/qYJQFEVRFEVRFKX8HAAAmZkXgXRrF1jhYTixItL+jetoBL6nXb4KjCTJtHSpIBRFURRFURRFKV8HAEaoceLA89oNQxUZc0k1P1YRbc1yPlCnnb4ShKdIxb6rglAURVEURVEUZSj8Pw1pmFWGrzVsAAAAJXRFWHRkYXRlOmNyZWF0ZQAyMDIyLTEyLTE0VDE0OjU3OjE3KzAwOjAwp7gXygAAACV0RVh0ZGF0ZTptb2RpZnkAMjAyMi0xMi0xNFQxNDo1NzoxNyswMDowMNblr3YAAAAASUVORK5CYII=;" vertex="1" parent="1">
          <mxGeometry x="65" y="755.82" width="270" height="42.71" as="geometry" />
        </mxCell>
        <mxCell id="S3e9Sxl7u26vaGx3Gl0a-7" value="AWS ACM Certificate" style="sketch=0;outlineConnect=0;fontColor=#232F3E;gradientColor=none;fillColor=#7AA116;strokeColor=none;dashed=0;verticalLabelPosition=bottom;verticalAlign=top;align=center;html=1;fontSize=12;fontStyle=0;aspect=fixed;pointerEvents=1;shape=mxgraph.aws4.certificate_manager;" vertex="1" parent="1">
          <mxGeometry x="171" y="110" width="59" height="78" as="geometry" />
        </mxCell>
        <mxCell id="S3e9Sxl7u26vaGx3Gl0a-8" style="edgeStyle=orthogonalEdgeStyle;rounded=0;orthogonalLoop=1;jettySize=auto;html=1;entryX=0.435;entryY=0.247;entryDx=0;entryDy=0;entryPerimeter=0;" edge="1" parent="1" source="S3e9Sxl7u26vaGx3Gl0a-7" target="NlvQtQ1QJhqWiSyS9MPp-8">
          <mxGeometry relative="1" as="geometry" />
        </mxCell>
      </root>
    </mxGraphModel>
  </diagram>
</mxfile>
